# xmcd
#
# Track frame offsets:
#	150
#	15101
#	35965
#	50351
#	63839
#	78267
#	100697
#	110771
#	125593
#	141616
#	159071
#	173511
#	187857
#	214009
#
# Disc length: 2858 seconds
#
# Revision: 1
# Processed by: cddbd v1.5.1PL0 Copyright (c) Steve Scherf et al.
# Submitted via: audiograbber 1.83.01
#
DISCID=af0b280e
DTITLE=Ruzni interpreti - Zlate trampske casy
DYEAR=2004
DGENRE=Country
TTITLE0=Mrtvej vlak
TTITLE1=Ascalona
TTITLE2=Hej koci
TTITLE3=Kruta valka
TTITLE4=Velrybarska vyprava
TTITLE5=Montgomery
TTITLE6=Rovnou
TTITLE7=Toulavej
TTITLE8=Kovbojuv narek
TTITLE9=Az ztichnou bile skaly
TTITLE10=Tommy
TTITLE11=Frankie Dlouhan
TTITLE12=Island
TTITLE13=Datova cast
EXTD=
EXTT0=
EXTT1=
EXTT2=
EXTT3=
EXTT4=
EXTT5=
EXTT6=
EXTT7=
EXTT8=
EXTT9=
EXTT10=
EXTT11=
EXTT12=
EXTT13=
PLAYORDER=
